<svg xmlns="http://www.w3.org/2000/svg" x="0px" y="0px" width="100" height="100" viewBox="0 0 100 100">
    <path d="M 50 14 C 30.129594 14 14 30.129594 14 50 C 14 69.870406 30.129594 86 50 86 C 69.870406 86 86 69.870406 86 50 C 86 30.129594 69.870406 14 50 14 z M 50 16 C 68.789526 16 84 31.210474 84 50 C 84 68.789526 68.789526 84 50 84 C 31.210474 84 16 68.789526 16 50 C 16 31.210474 31.210474 16 50 16 z M 50 21 C 36.633396 21 25.370834 30.048498 22.017578 42.359375 A 0.5001117 0.5001117 0 0 0 22.982422 42.623047 C 26.219166 30.739924 37.084604 22 50 22 C 57.559958 22 64.413568 24.992737 69.451172 29.859375 A 0.50005 0.50005 0 1 0 70.146484 29.140625 C 64.930088 24.101263 57.824042 21 50 21 z M 71.664062 30.994141 A 0.50005 0.50005 0 0 0 71.298828 31.824219 C 71.573188 32.14578 71.841234 32.472632 72.101562 32.806641 A 0.50005 0.50005 0 1 0 72.890625 32.193359 C 72.620955 31.847368 72.344187 31.50822 72.060547 31.175781 A 0.50005 0.50005 0 0 0 71.664062 30.994141 z M 73.919922 33.994141 A 0.50005 0.50005 0 0 0 73.5 34.773438 C 73.914384 35.410724 74.303319 36.065966 74.666016 36.738281 A 0.50075541 0.50075541 0 1 0 75.546875 36.261719 C 75.171572 35.566034 74.76946 34.887276 74.339844 34.226562 A 0.50005 0.50005 0 0 0 73.919922 33.994141 z M 76.066406 37.994141 A 0.50005 0.50005 0 0 0 75.626953 38.701172 C 77.152524 42.156055 78 45.978218 78 50 C 78 65.469776 65.469776 78 50 78 C 34.530224 78 22 65.469776 22 50 C 22 48.835534 22.0714 47.687774 22.208984 46.560547 A 0.50005 0.50005 0 1 0 21.216797 46.439453 C 21.074383 47.606226 21 48.794466 21 50 C 21 66.010224 33.989776 79 50 79 C 66.010224 79 79 66.010224 79 50 C 79 45.837782 78.123398 41.877945 76.542969 38.298828 A 0.50005 0.50005 0 0 0 76.066406 37.994141 z"></path>
    </svg>